<svg id="visual" viewBox="0 0 960 540" width="960" height="540" xmlns="http://www.w3.org/2000/svg" xmlns:xlink="http://www.w3.org/1999/xlink" version="1.1"><rect width="960" height="540" fill="#FFFFFF"></rect><g><g transform="translate(864 157)"><path d="M16.3 -19.4C21.1 -15.4 24.9 -10.2 26.4 -4.3C27.9 1.6 27 8.4 24.1 14.3C21.1 20.2 16.1 25.3 10 27.5C4 29.7 -3.1 28.9 -9.9 26.6C-16.6 24.4 -22.9 20.6 -25.5 15.2C-28.1 9.7 -27 2.6 -25 -3.7C-23.1 -10 -20.3 -15.4 -16 -19.5C-11.7 -23.6 -5.8 -26.3 0 -26.2C5.7 -26.2 11.5 -23.4 16.3 -19.4Z" stroke="#F7760E" fill="none" stroke-width="5"></path></g><g transform="translate(79 410)"><path d="M15.8 -18.8C19.8 -15.4 22.1 -9.8 22.5 -4.4C22.9 0.9 21.3 6.2 18.7 10.8C16 15.4 12.3 19.4 7.6 21.4C2.9 23.3 -2.8 23.3 -7.8 21.5C-12.9 19.7 -17.3 16.1 -19.7 11.6C-22 7.1 -22.2 1.6 -21.1 -3.6C-20 -8.7 -17.7 -13.5 -13.9 -17C-10.2 -20.5 -5.1 -22.8 0.4 -23.3C5.8 -23.7 11.7 -22.3 15.8 -18.8Z" stroke="#F7760E" fill="none" stroke-width="5"></path></g><g transform="translate(261 146)"><path d="M16.6 -20.2C20.8 -16.2 23 -10.3 23.7 -4.4C24.5 1.5 23.8 7.4 21 12.1C18.3 16.9 13.5 20.4 8.1 22.6C2.6 24.7 -3.5 25.5 -8.7 23.7C-14 21.9 -18.4 17.6 -20.9 12.5C-23.3 7.4 -23.7 1.6 -22.9 -4.2C-22.1 -10 -20 -15.7 -16 -19.7C-12 -23.7 -6 -26 0.1 -26.2C6.2 -26.3 12.4 -24.2 16.6 -20.2Z" stroke="#F7760E" fill="none" stroke-width="5"></path></g><g transform="translate(565 520)"><path d="M15.2 -18.8C19.6 -14.4 23.1 -9.5 24 -4.2C25 1.1 23.5 6.9 20.6 11.8C17.7 16.7 13.4 20.8 8.2 22.8C3.1 24.7 -2.9 24.6 -8.7 22.9C-14.4 21.2 -19.9 18 -22.6 13.1C-25.3 8.3 -25.2 2 -24.3 -4.4C-23.3 -10.9 -21.6 -17.3 -17.4 -21.7C-13.3 -26.1 -6.6 -28.5 -0.6 -27.8C5.4 -27 10.8 -23.2 15.2 -18.8Z" stroke="#F7760E" fill="none" stroke-width="5"></path></g><g transform="translate(714 84)"><path d="M11.9 -14.8C15.2 -11.3 17.7 -7.4 18.9 -3C20.1 1.4 20 6.4 17.8 10.4C15.7 14.4 11.5 17.3 6.9 19C2.3 20.7 -2.8 21.2 -7 19.6C-11.2 17.9 -14.5 14.1 -17.3 9.7C-20.2 5.4 -22.6 0.5 -22.4 -4.5C-22.1 -9.5 -19.3 -14.6 -15.2 -17.9C-11 -21.3 -5.5 -23 -0.6 -22.3C4.3 -21.5 8.5 -18.4 11.9 -14.8Z" stroke="#F7760E" fill="none" stroke-width="5"></path></g><g transform="translate(136 204)"><path d="M16 -19.8C20 -15.6 22.3 -10 23.9 -3.8C25.4 2.3 26.3 9 23.6 13.8C21 18.6 15 21.5 8.7 23.8C2.4 26.1 -4.2 27.7 -9.9 26.1C-15.6 24.5 -20.6 19.6 -22.9 14C-25.2 8.4 -24.8 2 -23.4 -3.8C-21.9 -9.6 -19.4 -14.8 -15.3 -19.1C-11.2 -23.3 -5.6 -26.6 0.2 -26.8C5.9 -26.9 11.9 -24.1 16 -19.8Z" stroke="#F7760E" fill="none" stroke-width="5"></path></g><g transform="translate(301 510)"><path d="M15 -18.4C19 -14.5 21.6 -9.4 22.3 -4.1C23 1.1 21.7 6.5 19 10.9C16.4 15.4 12.3 18.9 7.6 20.6C2.9 22.2 -2.5 21.8 -7.2 20C-11.9 18.2 -16.1 14.9 -19.1 10.6C-22.1 6.2 -23.9 0.8 -23.3 -4.4C-22.7 -9.6 -19.7 -14.7 -15.4 -18.6C-11 -22.5 -5.5 -25.2 0 -25.2C5.5 -25.2 10.9 -22.4 15 -18.4Z" stroke="#F7760E" fill="none" stroke-width="5"></path></g><g transform="translate(804 436)"><path d="M14 -16.5C17.9 -13.4 20.8 -8.8 21.7 -3.8C22.6 1.1 21.5 6.5 19 11C16.4 15.5 12.4 19.3 7.8 20.5C3.3 21.7 -1.8 20.4 -6 18.2C-10.2 16 -13.5 12.8 -16.4 8.9C-19.4 5 -21.9 0.4 -21.2 -3.7C-20.4 -7.7 -16.3 -11.1 -12.2 -14.3C-8.1 -17.5 -4.1 -20.4 0.5 -21C5 -21.5 10 -19.7 14 -16.5Z" stroke="#F7760E" fill="none" stroke-width="5"></path></g><g transform="translate(514 59)"><path d="M17.5 -20.4C22.3 -16.9 25.5 -11 26.4 -4.8C27.3 1.3 25.9 7.7 22.5 12.5C19.2 17.2 13.8 20.3 8.1 22.5C2.3 24.7 -3.8 26.1 -9 24.4C-14.2 22.6 -18.4 17.8 -20.8 12.5C-23.3 7.2 -24.1 1.4 -23.3 -4.4C-22.6 -10.1 -20.4 -15.9 -16.2 -19.5C-12.1 -23.1 -6 -24.6 0.2 -24.8C6.4 -25 12.7 -23.9 17.5 -20.4Z" stroke="#F7760E" fill="none" stroke-width="5"></path></g><g transform="translate(58 150)"><path d="M13 -15C16.8 -12.3 19.7 -8.2 20.8 -3.5C21.8 1.2 21 6.4 18.5 10.5C15.9 14.7 11.7 17.7 7.1 19.2C2.5 20.8 -2.6 20.8 -7 19.2C-11.5 17.7 -15.4 14.4 -17.2 10.3C-19 6.3 -18.8 1.5 -18.2 -3.3C-17.5 -8.2 -16.3 -13.1 -13.2 -15.9C-10.1 -18.7 -5 -19.4 -0.2 -19.2C4.6 -18.9 9.2 -17.7 13 -15Z" stroke="#F7760E" fill="none" stroke-width="5"></path></g><g transform="translate(786 154)"><path d="M13.2 -16C17.1 -12.5 20.2 -8.3 21.5 -3.4C22.9 1.5 22.4 7.1 19.7 11C17 15 12.1 17.3 7.1 18.6C2.2 19.9 -2.6 20.3 -7.2 19C-11.7 17.7 -15.9 14.7 -18.1 10.6C-20.3 6.5 -20.5 1.5 -19.2 -3C-18 -7.4 -15.3 -11.2 -11.8 -14.8C-8.4 -18.4 -4.2 -21.8 0.2 -22C4.6 -22.3 9.3 -19.5 13.2 -16Z" stroke="#F7760E" fill="none" stroke-width="5"></path></g><g transform="translate(59 250)"><path d="M12.6 -15.6C16 -12.1 18.3 -7.9 19.1 -3.4C19.9 1.1 19.1 5.8 16.8 9.6C14.5 13.5 10.8 16.4 6.3 18.6C1.8 20.8 -3.4 22.3 -8.2 21.1C-12.9 20 -17.2 16.2 -20 11.5C-22.7 6.8 -23.9 1.2 -22.7 -3.7C-21.4 -8.6 -17.8 -12.7 -13.6 -16.1C-9.4 -19.5 -4.7 -22.2 -0.1 -22.1C4.6 -22 9.1 -19.1 12.6 -15.6Z" stroke="#F7760E" fill="none" stroke-width="5"></path></g><g transform="translate(39 514)"><path d="M14.2 -16.3C18.8 -13.1 23.1 -9 24.2 -4C25.4 0.9 23.4 6.6 20.4 11.8C17.5 17.1 13.6 21.8 8.4 24.2C3.2 26.6 -3.3 26.7 -8.9 24.6C-14.6 22.5 -19.5 18.3 -22.1 13.1C-24.7 7.9 -25 1.7 -23.6 -3.8C-22.2 -9.3 -19.1 -14.2 -14.9 -17.5C-10.7 -20.7 -5.3 -22.4 -0.3 -22.1C4.8 -21.8 9.7 -19.5 14.2 -16.3Z" stroke="#F7760E" fill="none" stroke-width="5"></path></g><g transform="translate(480 393)"><path d="M13.9 -16.2C17.9 -13.2 20.9 -8.7 21.7 -3.9C22.4 0.9 21 6.1 18.4 10.8C15.9 15.5 12.3 19.7 7.7 21.6C3.1 23.5 -2.6 23 -7 20.7C-11.5 18.5 -14.8 14.5 -17.1 10.1C-19.4 5.7 -20.7 0.9 -20.3 -4C-19.9 -8.8 -17.8 -13.8 -14.2 -16.8C-10.5 -19.8 -5.2 -20.9 -0.1 -20.7C4.9 -20.6 9.9 -19.1 13.9 -16.2Z" stroke="#F7760E" fill="none" stroke-width="5"></path></g><g transform="translate(409 11)"><path d="M11.6 -13.7C15 -10.9 17.8 -7.3 19.3 -2.8C20.7 1.6 20.8 6.8 18.6 10.9C16.5 15.1 12.1 18.1 7.2 20C2.3 21.9 -3.1 22.6 -7.8 21C-12.4 19.5 -16.3 15.6 -18.8 11C-21.3 6.4 -22.4 1.1 -21.2 -3.4C-20 -8 -16.6 -11.8 -12.7 -14.6C-8.8 -17.4 -4.4 -19 -0.2 -18.8C4.1 -18.6 8.1 -16.6 11.6 -13.7Z" stroke="#F7760E" fill="none" stroke-width="5"></path></g><g transform="translate(879 499)"><path d="M17.6 -21C22.4 -17 25.4 -11 25.6 -5.2C25.9 0.7 23.4 6.4 20.3 11.8C17.3 17.2 13.6 22.3 8.5 24.9C3.3 27.5 -3.3 27.5 -9.2 25.3C-15.1 23.2 -20.1 18.8 -23.5 13.4C-26.9 7.9 -28.6 1.3 -27.1 -4.3C-25.5 -9.8 -20.6 -14.3 -15.6 -18.2C-10.5 -22 -5.3 -25.3 0.6 -26C6.4 -26.7 12.9 -24.9 17.6 -21Z" stroke="#F7760E" fill="none" stroke-width="5"></path></g><g transform="translate(670 404)"><path d="M15.6 -18.6C20.3 -14.6 24.2 -9.8 25 -4.6C25.7 0.7 23.3 6.4 20.1 11.3C16.9 16.3 13 20.5 7.8 23.1C2.7 25.7 -3.7 26.6 -8.9 24.6C-14.1 22.6 -18.2 17.8 -20.3 12.5C-22.4 7.3 -22.4 1.7 -21.1 -3.4C-19.9 -8.5 -17.4 -13.1 -13.6 -17.2C-9.9 -21.3 -4.9 -25 0.3 -25.3C5.4 -25.6 10.9 -22.5 15.6 -18.6Z" stroke="#F7760E" fill="none" stroke-width="5"></path></g><g transform="translate(267 407)"><path d="M16.7 -19.2C21.4 -15.9 24.9 -10.4 26.1 -4.5C27.2 1.5 26.1 7.9 22.8 12.6C19.4 17.3 14 20.3 8.2 22.4C2.4 24.4 -3.7 25.6 -8.9 23.9C-14.1 22.2 -18.4 17.7 -20.5 12.6C-22.6 7.5 -22.5 1.8 -21.6 -3.8C-20.6 -9.4 -18.9 -14.9 -15.2 -18.4C-11.4 -21.9 -5.7 -23.5 0.1 -23.6C6 -23.7 11.9 -22.5 16.7 -19.2Z" stroke="#F7760E" fill="none" stroke-width="5"></path></g><g transform="translate(917 393)"><path d="M15.4 -17.4C20.2 -14.3 24.5 -9.7 25.9 -4.2C27.4 1.4 26 7.8 22.8 13C19.6 18.2 14.5 22.1 8.8 24.3C3 26.4 -3.5 26.9 -8.9 24.8C-14.4 22.7 -18.9 18.1 -22.2 12.7C-25.4 7.3 -27.3 1.1 -26.1 -4.3C-24.8 -9.7 -20.2 -14.2 -15.3 -17.3C-10.4 -20.4 -5.2 -22.1 0 -22.2C5.3 -22.2 10.6 -20.6 15.4 -17.4Z" stroke="#F7760E" fill="none" stroke-width="5"></path></g><g transform="translate(503 184)"><path d="M13.9 -17.3C17.7 -13.3 20.4 -8.7 21.8 -3.4C23.2 1.8 23.4 7.7 20.9 12C18.3 16.4 13.2 19.2 7.6 21.6C2 23.9 -4 25.8 -9.1 24.3C-14.2 22.8 -18.4 17.9 -21.2 12.5C-24.1 7.1 -25.7 1.1 -24.5 -4.1C-23.3 -9.3 -19.3 -13.8 -14.8 -17.6C-10.3 -21.4 -5.1 -24.5 -0.1 -24.5C5 -24.4 10 -21.2 13.9 -17.3Z" stroke="#F7760E" fill="none" stroke-width="5"></path></g><g transform="translate(99 33)"><path d="M13.5 -15.6C17.5 -12.7 20.7 -8.5 21.8 -3.7C22.9 1.2 21.8 6.5 19 10.7C16.3 14.9 12 18 7.2 19.6C2.4 21.3 -2.8 21.7 -7.9 20.4C-13 19.1 -18.1 16.2 -20.9 11.8C-23.7 7.4 -24.4 1.5 -22.8 -3.4C-21.2 -8.3 -17.4 -12.2 -13.2 -15.1C-9 -18.1 -4.5 -19.9 0.1 -20.1C4.7 -20.2 9.5 -18.6 13.5 -15.6Z" stroke="#F7760E" fill="none" stroke-width="5"></path></g><g transform="translate(717 339)"><path d="M12.9 -15C16.6 -12.1 19.7 -8.1 20.3 -3.7C20.9 0.6 19 5.3 16.4 9C13.7 12.8 10.2 15.7 6.3 17C2.3 18.3 -2.1 18 -6.7 17C-11.4 15.9 -16.2 14.1 -18.4 10.5C-20.5 7 -20 1.8 -19.1 -3.4C-18.3 -8.7 -17.2 -13.9 -13.9 -16.8C-10.7 -19.8 -5.3 -20.5 -0.4 -20C4.5 -19.5 9.1 -17.9 12.9 -15Z" stroke="#F7760E" fill="none" stroke-width="5"></path></g><g transform="translate(599 245)"><path d="M15.7 -18.5C19.9 -15.2 22.5 -9.8 24.2 -3.7C25.9 2.3 26.7 9.1 24.3 14.8C21.9 20.5 16.4 25 10.2 26.6C4.1 28.1 -2.5 26.6 -8.8 24.3C-15.2 22 -21.2 18.8 -24.3 13.8C-27.5 8.8 -27.9 1.9 -26.2 -4C-24.4 -10 -20.6 -14.9 -15.9 -18.1C-11.1 -21.4 -5.6 -22.8 0.1 -22.9C5.8 -23 11.5 -21.8 15.7 -18.5Z" stroke="#F7760E" fill="none" stroke-width="5"></path></g><g transform="translate(272 2)"><path d="M12.5 -14.9C16 -12.1 18.3 -7.9 19.2 -3.3C20.1 1.3 19.6 6.2 17.6 10.6C15.6 15.1 12 19.1 7.4 21.2C2.7 23.3 -2.9 23.5 -8.2 21.8C-13.4 20.2 -18.3 16.8 -21.2 12.1C-24.2 7.3 -25.3 1.3 -24 -3.9C-22.7 -9.2 -19 -13.7 -14.6 -16.3C-10.2 -18.9 -5.1 -19.7 -0.3 -19.4C4.6 -19.1 9.1 -17.7 12.5 -14.9Z" stroke="#F7760E" fill="none" stroke-width="5"></path></g><g transform="translate(352 314)"><path d="M16.9 -20.5C20.9 -16.7 22.7 -10.5 23.3 -4.4C24 1.6 23.6 7.5 21.2 12.9C18.9 18.3 14.6 23.2 9.1 25.4C3.6 27.6 -3 27.1 -8.3 24.4C-13.5 21.8 -17.4 17 -20.1 11.9C-22.7 6.7 -24.2 1.1 -23.5 -4.4C-22.8 -9.8 -19.9 -15.1 -15.7 -18.8C-11.4 -22.6 -5.7 -24.8 0.3 -25.2C6.4 -25.6 12.8 -24.2 16.9 -20.5Z" stroke="#F7760E" fill="none" stroke-width="5"></path></g><g transform="translate(652 494)"><path d="M14.2 -16.8C18.8 -13.1 23.1 -9 23.9 -4.3C24.6 0.4 21.8 5.7 18.6 10.3C15.4 14.9 11.8 18.8 7.1 21.2C2.4 23.6 -3.5 24.6 -8.1 22.7C-12.7 20.8 -16 16 -18.1 11.1C-20.1 6.2 -20.9 1.2 -20.3 -3.8C-19.6 -8.7 -17.6 -13.7 -14 -17.6C-10.4 -21.5 -5.2 -24.4 -0.2 -24.1C4.8 -23.9 9.6 -20.6 14.2 -16.8Z" stroke="#F7760E" fill="none" stroke-width="5"></path></g><g transform="translate(668 147)"><path d="M15 -17.6C19.2 -14.3 22.2 -9.4 23.2 -4.1C24.1 1.3 23 7 20.1 11.1C17.1 15.3 12.3 17.9 7.2 19.8C2 21.7 -3.4 22.9 -7.9 21.4C-12.5 19.9 -16.3 15.7 -18.5 11.1C-20.8 6.4 -21.6 1.2 -20.7 -3.6C-19.7 -8.3 -17 -12.7 -13.3 -16.1C-9.6 -19.5 -4.8 -21.9 0.3 -22.2C5.4 -22.6 10.8 -20.9 15 -17.6Z" stroke="#F7760E" fill="none" stroke-width="5"></path></g><g transform="translate(718 227)"><path d="M13.8 -16.4C17.5 -13.3 19.9 -8.6 21.6 -3.2C23.2 2.2 24.2 8.3 22 13.1C19.7 17.9 14.4 21.3 8.6 23.4C2.7 25.5 -3.5 26.2 -8.4 24C-13.2 21.8 -16.7 16.7 -19.4 11.5C-22.1 6.2 -24 0.8 -23.1 -4C-22.1 -8.7 -18.2 -12.8 -13.8 -15.9C-9.5 -18.9 -4.7 -20.8 0.1 -21C5 -21.2 10 -19.6 13.8 -16.4Z" stroke="#F7760E" fill="none" stroke-width="5"></path></g><g transform="translate(331 383)"><path d="M16.5 -19.8C20.9 -16 23.7 -10.3 24 -4.8C24.3 0.7 22.1 6.1 19.1 10.7C16 15.3 12.2 19.1 7.6 20.7C3 22.3 -2.3 21.6 -6.9 19.7C-11.6 17.7 -15.5 14.5 -18 10.3C-20.6 6.1 -21.7 1.1 -21.1 -4C-20.5 -9 -18.2 -13.9 -14.3 -17.8C-10.5 -21.6 -5.3 -24.4 0.4 -24.9C6.1 -25.4 12.1 -23.5 16.5 -19.8Z" stroke="#F7760E" fill="none" stroke-width="5"></path></g><g transform="translate(517 459)"><path d="M18 -20.8C22.7 -17.4 25.7 -11.2 26.6 -4.9C27.4 1.5 26.3 8 23 12.9C19.8 17.9 14.3 21.2 8.5 23.2C2.7 25.2 -3.5 25.9 -8.5 23.9C-13.5 21.8 -17.2 17 -20.4 11.7C-23.5 6.4 -26.1 0.7 -25.7 -5C-25.2 -10.7 -21.9 -16.4 -17.1 -19.8C-12.4 -23.2 -6.2 -24.3 0.2 -24.5C6.6 -24.8 13.2 -24.2 18 -20.8Z" stroke="#F7760E" fill="none" stroke-width="5"></path></g><g transform="translate(904 77)"><path d="M13.8 -16.3C18.1 -12.8 22 -8.7 23.5 -3.6C25.1 1.4 24.2 7.5 21.2 11.9C18.2 16.3 13.1 19.1 8 20.3C2.8 21.5 -2.3 21 -7.3 19.4C-12.3 17.9 -17.2 15.3 -20.2 11.2C-23.3 7 -24.4 1.2 -23.5 -4.2C-22.6 -9.6 -19.5 -14.6 -15.3 -18.1C-11 -21.6 -5.5 -23.5 -0.4 -23C4.7 -22.6 9.5 -19.8 13.8 -16.3Z" stroke="#F7760E" fill="none" stroke-width="5"></path></g><g transform="translate(125 326)"><path d="M12.7 -14.9C16.2 -12.2 18.7 -8 19.3 -3.5C19.9 0.9 18.7 5.5 16.4 9.7C14.2 13.9 11 17.7 6.8 19.6C2.6 21.5 -2.6 21.5 -7.4 20C-12.3 18.4 -16.8 15.3 -19.1 11.1C-21.5 6.9 -21.8 1.5 -20.4 -3.2C-19.1 -7.8 -16.2 -11.8 -12.5 -14.5C-8.8 -17.2 -4.4 -18.7 0.1 -18.8C4.6 -18.9 9.2 -17.7 12.7 -14.9Z" stroke="#F7760E" fill="none" stroke-width="5"></path></g><g transform="translate(795 18)"><path d="M17.6 -20.5C22.5 -16.8 25.9 -11 27.1 -4.7C28.3 1.5 27.2 8.3 23.9 13.8C20.7 19.2 15.4 23.5 9.3 25.7C3.3 27.9 -3.5 28 -9 25.7C-14.6 23.3 -19 18.4 -21.6 12.9C-24.3 7.4 -25.2 1.4 -23.9 -3.8C-22.5 -9.1 -18.8 -13.5 -14.4 -17.3C-10 -21.2 -5 -24.4 0.7 -25.2C6.3 -26 12.6 -24.3 17.6 -20.5Z" stroke="#F7760E" fill="none" stroke-width="5"></path></g><g transform="translate(804 234)"><path d="M14.5 -17.6C18.6 -13.8 21.8 -9.1 22.9 -3.9C23.9 1.3 22.9 7 20.1 11.5C17.4 16 12.8 19.3 7.8 20.9C2.8 22.5 -2.6 22.3 -7.8 20.8C-13.1 19.2 -18.1 16.3 -20.6 11.9C-23.1 7.5 -23 1.7 -22.1 -4C-21.2 -9.7 -19.4 -15.4 -15.6 -19.2C-11.8 -23.1 -5.9 -25.1 -0.4 -24.7C5.2 -24.3 10.3 -21.4 14.5 -17.6Z" stroke="#F7760E" fill="none" stroke-width="5"></path></g><g transform="translate(753 501)"><path d="M13 -15.3C17.1 -12.1 20.7 -8.2 21.5 -3.8C22.2 0.6 20.1 5.5 17.4 10C14.8 14.6 11.6 18.9 7.3 20.8C2.9 22.8 -2.6 22.5 -7.4 20.6C-12.3 18.8 -16.6 15.4 -18.8 11.1C-21 6.8 -21.2 1.5 -20.5 -3.8C-19.7 -9.1 -18.1 -14.4 -14.6 -17.7C-11 -20.9 -5.5 -22.2 -0.5 -21.6C4.5 -21 9 -18.5 13 -15.3Z" stroke="#F7760E" fill="none" stroke-width="5"></path></g><g transform="translate(368 530)"><path d="M13.4 -15.7C17 -12.9 19.5 -8.4 19.8 -3.9C20.1 0.6 18.3 5.1 15.9 9C13.4 13 10.3 16.4 6.2 18.5C2.1 20.7 -3 21.5 -7.7 20.2C-12.4 19 -16.7 15.6 -19 11.2C-21.2 6.8 -21.3 1.5 -20.3 -3.5C-19.3 -8.5 -17.2 -13.2 -13.6 -16.1C-10 -18.9 -5 -19.9 -0.1 -19.8C4.9 -19.7 9.8 -18.6 13.4 -15.7Z" stroke="#F7760E" fill="none" stroke-width="5"></path></g><g transform="translate(910 324)"><path d="M13.9 -16.8C17.1 -13.9 18.1 -8.6 18.4 -3.7C18.7 1.2 18.2 5.7 16.4 10C14.5 14.4 11.4 18.5 7.1 20.4C2.9 22.3 -2.5 22 -6.8 19.9C-11.1 17.8 -14.3 14 -16.9 9.7C-19.5 5.4 -21.3 0.7 -20.6 -3.7C-19.9 -8 -16.6 -11.9 -12.7 -14.7C-8.8 -17.5 -4.4 -19.2 0.5 -19.7C5.4 -20.3 10.7 -19.7 13.9 -16.8Z" stroke="#F7760E" fill="none" stroke-width="5"></path></g><g transform="translate(943 251)"><path d="M15.2 -17.5C19.5 -14.4 22.9 -9.5 23.5 -4.4C24.2 0.8 22.2 6.2 19 10.3C15.9 14.3 11.5 17 7 18.3C2.4 19.6 -2.3 19.5 -6.8 18.1C-11.3 16.8 -15.6 14.1 -18.3 10.2C-21 6.3 -22.1 1.1 -21.4 -3.9C-20.7 -9 -18.2 -13.8 -14.3 -17C-10.4 -20.2 -5.2 -21.6 0.1 -21.7C5.4 -21.8 10.8 -20.6 15.2 -17.5Z" stroke="#F7760E" fill="none" stroke-width="5"></path></g><g transform="translate(370 193)"><path d="M16.1 -19C20.5 -15.4 23.5 -10.1 24.2 -4.5C24.9 1.1 23.4 6.8 20.3 11.2C17.1 15.5 12.5 18.5 7.5 20.1C2.5 21.7 -2.8 21.9 -7.6 20.3C-12.4 18.8 -16.7 15.5 -19.4 11.1C-22.2 6.7 -23.3 1.2 -22.4 -3.9C-21.4 -9 -18.4 -13.6 -14.3 -17.3C-10.2 -20.9 -5.1 -23.6 0.4 -24C5.8 -24.5 11.7 -22.7 16.1 -19Z" stroke="#F7760E" fill="none" stroke-width="5"></path></g><g transform="translate(374 456)"><path d="M14.2 -16.7C18.1 -13.7 20.8 -8.9 21.3 -4.1C21.8 0.8 20.1 5.7 17.6 10.3C15.1 14.9 11.8 19.1 7.2 21.4C2.7 23.8 -3.2 24.3 -8.4 22.5C-13.5 20.8 -18.1 17 -21 12.1C-23.9 7.2 -25.1 1.3 -24.1 -4.2C-23 -9.6 -19.7 -14.6 -15.3 -17.6C-11 -20.6 -5.5 -21.6 -0.2 -21.4C5.2 -21.2 10.3 -19.8 14.2 -16.7Z" stroke="#F7760E" fill="none" stroke-width="5"></path></g><g transform="translate(482 304)"><path d="M17.1 -19.7C21.6 -16.6 24.2 -10.7 24.3 -5C24.4 0.6 22 6 19.1 11.1C16.2 16.2 12.8 21.1 8.2 22.8C3.7 24.5 -2.1 23.1 -7.6 21.1C-13.1 19 -18.2 16.2 -21.3 11.8C-24.4 7.4 -25.5 1.4 -24.1 -3.8C-22.6 -9 -18.7 -13.3 -14.2 -16.3C-9.8 -19.4 -4.9 -21.2 0.7 -22C6.3 -22.8 12.6 -22.7 17.1 -19.7Z" stroke="#F7760E" fill="none" stroke-width="5"></path></g><g transform="translate(203 110)"><path d="M14.7 -17.7C18.5 -14.4 20.5 -9.2 21.9 -3.5C23.3 2.1 24 8.2 21.6 12.6C19.3 17 13.7 19.8 7.9 22C2.1 24.2 -4 25.9 -9.6 24.6C-15.2 23.3 -20.3 19 -23.2 13.6C-26.1 8.2 -26.7 1.7 -25.2 -4C-23.6 -9.6 -19.8 -14.4 -15.3 -17.6C-10.7 -20.8 -5.4 -22.3 0.1 -22.4C5.5 -22.5 11 -21.1 14.7 -17.7Z" stroke="#F7760E" fill="none" stroke-width="5"></path></g><g transform="translate(795 328)"><path d="M16.2 -19.3C20.5 -15.6 23.3 -10.1 24 -4.5C24.6 1.1 23.2 6.8 20.7 12.6C18.1 18.3 14.5 24.1 9.2 26.6C3.9 29.1 -3 28.2 -9.4 25.8C-15.7 23.5 -21.5 19.6 -24.8 14.2C-28.1 8.7 -29 1.7 -27.3 -4.2C-25.5 -10.2 -21.1 -15 -16.1 -18.6C-11.1 -22.1 -5.6 -24.4 0.2 -24.6C5.9 -24.8 11.8 -22.9 16.2 -19.3Z" stroke="#F7760E" fill="none" stroke-width="5"></path></g><g transform="translate(282 237)"><path d="M14.5 -18.2C18.7 -13.8 21.8 -9.1 23.1 -3.7C24.4 1.6 24 7.6 21.5 12.9C19 18.2 14.5 22.8 9 24.9C3.4 27.1 -3.1 26.7 -8.7 24.4C-14.3 22.1 -18.9 17.9 -21.7 12.7C-24.4 7.5 -25.2 1.5 -24.7 -4.9C-24.2 -11.2 -22.3 -17.8 -18 -22.1C-13.6 -26.5 -6.8 -28.6 -0.8 -27.6C5.2 -26.6 10.4 -22.6 14.5 -18.2Z" stroke="#F7760E" fill="none" stroke-width="5"></path></g><g transform="translate(897 4)"><path d="M14.9 -17.3C19.4 -13.9 23.3 -9.4 24.1 -4.3C24.9 0.7 22.5 6.2 19.4 10.9C16.3 15.7 12.5 19.7 7.7 21.6C2.9 23.5 -2.8 23.4 -7.8 21.5C-12.8 19.6 -17.1 16 -19.8 11.4C-22.6 6.8 -23.8 1.2 -23.6 -4.8C-23.3 -10.8 -21.6 -17.2 -17.4 -20.7C-13.2 -24.1 -6.6 -24.7 -0.7 -23.8C5.2 -22.9 10.4 -20.7 14.9 -17.3Z" stroke="#F7760E" fill="none" stroke-width="5"></path></g><g transform="translate(718 5)"><path d="M14.6 -17.2C18.8 -13.9 21.8 -9.2 22 -4.4C22.2 0.3 19.6 5.1 16.7 9.3C13.9 13.5 10.7 17.2 6.7 18.8C2.7 20.4 -2.2 19.9 -6.9 18.4C-11.7 17 -16.3 14.5 -18.8 10.7C-21.3 6.8 -21.6 1.5 -20.7 -3.7C-19.9 -8.8 -17.8 -13.8 -14.1 -17.2C-10.5 -20.6 -5.2 -22.4 0 -22.4C5.2 -22.4 10.5 -20.6 14.6 -17.2Z" stroke="#F7760E" fill="none" stroke-width="5"></path></g><g transform="translate(220 497)"><path d="M16.5 -19.7C20.7 -16.2 23 -10.3 23.9 -4.3C24.8 1.6 24.3 7.7 21.8 13C19.2 18.3 14.6 22.8 9.3 24.1C4 25.4 -1.9 23.4 -7.2 21C-12.6 18.6 -17.3 15.7 -20.3 11.3C-23.3 7 -24.4 1.2 -23.3 -4C-22.2 -9.2 -18.9 -13.8 -14.6 -17.4C-10.3 -20.9 -5.2 -23.4 0.5 -24C6.2 -24.6 12.3 -23.3 16.5 -19.7Z" stroke="#F7760E" fill="none" stroke-width="5"></path></g><g transform="translate(148 477)"><path d="M15.7 -19.3C20.3 -14.8 24.1 -9.8 25.6 -4.1C27 1.6 26.3 8.2 23.4 13.8C20.5 19.4 15.5 24.1 9.5 26.3C3.6 28.5 -3.3 28.2 -8.6 25.5C-13.9 22.7 -17.7 17.6 -20.2 12.2C-22.7 6.8 -24 1.2 -23.3 -4.4C-22.7 -10 -20.3 -15.7 -16.1 -20.2C-11.9 -24.8 -5.9 -28.3 -0.2 -28.1C5.5 -27.8 11 -23.8 15.7 -19.3Z" stroke="#F7760E" fill="none" stroke-width="5"></path></g><g transform="translate(348 70)"><path d="M13.4 -16.2C17 -13 19.1 -8.4 20.5 -3.2C21.9 1.9 22.5 7.6 20.1 11.6C17.8 15.6 12.6 17.9 7.5 19.1C2.4 20.3 -2.5 20.3 -7.4 19.1C-12.4 17.9 -17.4 15.4 -19.9 11.4C-22.3 7.3 -22.2 1.7 -21 -3.5C-19.9 -8.8 -17.7 -13.6 -14 -16.8C-10.3 -20 -5.2 -21.5 -0.1 -21.4C4.9 -21.2 9.9 -19.4 13.4 -16.2Z" stroke="#F7760E" fill="none" stroke-width="5"></path></g><g transform="translate(279 316)"><path d="M13.2 -15.4C17.4 -12.1 21.5 -8.3 22.4 -3.8C23.3 0.7 21.2 5.8 18.3 10.4C15.5 15 11.9 18.9 7.4 20.7C2.9 22.5 -2.5 22.1 -7.4 20.3C-12.4 18.5 -16.8 15.4 -19.5 11.1C-22.1 6.8 -22.9 1.3 -21.6 -3.5C-20.4 -8.3 -17.1 -12.3 -13.1 -15.7C-9.2 -19.1 -4.6 -21.8 -0.1 -21.7C4.5 -21.6 8.9 -18.8 13.2 -15.4Z" stroke="#F7760E" fill="none" stroke-width="5"></path></g><g transform="translate(636 17)"><path d="M13.8 -17.1C17.5 -13.5 19.6 -8.6 21 -3.3C22.3 2 23 7.8 20.6 11.9C18.2 16 12.9 18.3 7.7 19.5C2.5 20.6 -2.5 20.6 -7.1 19.1C-11.6 17.5 -15.8 14.5 -18.6 10.4C-21.5 6.3 -22.9 1 -22.4 -4.3C-21.9 -9.6 -19.4 -14.9 -15.4 -18.5C-11.3 -22.1 -5.7 -23.9 -0.3 -23.6C5.1 -23.3 10.2 -20.8 13.8 -17.1Z" stroke="#F7760E" fill="none" stroke-width="5"></path></g><g transform="translate(588 410)"><path d="M16 -18.4C20.8 -15.2 24.6 -10.1 25.1 -4.8C25.5 0.5 22.7 6 19.6 11.2C16.4 16.5 13 21.5 8.1 24.1C3.1 26.8 -3.4 27.1 -9 25C-14.5 22.8 -19.1 18.2 -21.8 12.9C-24.5 7.6 -25.3 1.5 -24.2 -4.1C-23 -9.7 -19.9 -14.9 -15.5 -18.2C-11.2 -21.5 -5.6 -22.9 0 -22.9C5.7 -23 11.3 -21.6 16 -18.4Z" stroke="#F7760E" fill="none" stroke-width="5"></path></g><g transform="translate(849 376)"><path d="M14.6 -17.5C18.5 -14.1 20.9 -9.1 22.3 -3.6C23.6 1.8 23.7 7.8 21.1 12.1C18.5 16.3 13.2 18.9 7.7 20.7C2.2 22.6 -3.4 23.7 -8.3 22.2C-13.1 20.7 -17.1 16.5 -20 11.5C-22.9 6.6 -24.6 1 -23.8 -4.2C-22.9 -9.5 -19.5 -14.3 -15.1 -17.7C-10.7 -21.1 -5.4 -23 0 -23C5.3 -23 10.6 -21 14.6 -17.5Z" stroke="#F7760E" fill="none" stroke-width="5"></path></g><g transform="translate(478 523)"><path d="M16.3 -19.1C21.2 -15.3 25.4 -10.3 26.6 -4.5C27.7 1.2 25.9 7.6 22.6 12.9C19.3 18.2 14.5 22.5 9 24.4C3.4 26.3 -2.9 25.7 -9.1 23.9C-15.3 22.1 -21.5 19.1 -25.1 14C-28.6 8.9 -29.5 1.8 -28.1 -4.8C-26.7 -11.3 -23.1 -17.2 -18 -21C-12.9 -24.8 -6.5 -26.4 -0.4 -26C5.7 -25.5 11.4 -22.9 16.3 -19.1Z" stroke="#F7760E" fill="none" stroke-width="5"></path></g><g transform="translate(954 538)"><path d="M14 -15.7C18.6 -12.8 23.2 -8.8 24.9 -3.7C26.7 1.5 25.6 7.8 22.3 12.3C19 16.8 13.5 19.5 8 21.2C2.4 23 -3.3 23.8 -8.6 22.4C-13.8 21 -18.6 17.2 -21.8 12.3C-25 7.4 -26.6 1.2 -25.4 -4.3C-24.2 -9.8 -20.3 -14.7 -15.6 -17.5C-10.9 -20.4 -5.5 -21.2 -0.4 -20.8C4.7 -20.3 9.4 -18.5 14 -15.7Z" stroke="#F7760E" fill="none" stroke-width="5"></path></g><g transform="translate(573 333)"><path d="M13 -15.6C16.3 -12.7 18.2 -8.1 18.8 -3.5C19.4 1.1 18.7 5.8 16.7 10C14.7 14.3 11.4 18.2 7.1 20C2.8 21.7 -2.4 21.3 -7.4 19.7C-12.5 18.2 -17.3 15.5 -20.2 11.3C-23.1 7.1 -24 1.3 -22.6 -3.5C-21.2 -8.4 -17.4 -12.3 -13.3 -15.1C-9.1 -17.9 -4.6 -19.6 0.1 -19.7C4.8 -19.9 9.6 -18.6 13 -15.6Z" stroke="#F7760E" fill="none" stroke-width="5"></path></g><g transform="translate(581 167)"><path d="M16.7 -20.3C21.1 -16.2 23.7 -10.4 24.6 -4.5C25.5 1.4 24.5 7.5 21.5 12.2C18.5 16.8 13.5 19.9 8 21.8C2.6 23.7 -3.2 24.3 -8.8 22.9C-14.4 21.4 -19.7 17.9 -22.5 13C-25.3 8.1 -25.6 1.8 -24.2 -3.9C-22.8 -9.7 -19.7 -14.7 -15.4 -18.9C-11.1 -23 -5.5 -26.1 0.3 -26.5C6.2 -26.8 12.3 -24.4 16.7 -20.3Z" stroke="#F7760E" fill="none" stroke-width="5"></path></g><g transform="translate(412 281)"><path d="M14.6 -17.6C18.6 -14.1 21.1 -9.2 21.5 -4.2C22 0.8 20.2 5.7 17.5 9.7C14.7 13.7 11 16.7 6.5 18.6C2.1 20.4 -2.9 21.1 -7.6 19.9C-12.4 18.6 -16.8 15.5 -19.4 11.1C-22.1 6.8 -22.9 1.3 -22.2 -4.2C-21.6 -9.7 -19.5 -15.3 -15.6 -18.7C-11.6 -22.2 -5.8 -23.6 -0.2 -23.3C5.3 -23 10.7 -21.1 14.6 -17.6Z" stroke="#F7760E" fill="none" stroke-width="5"></path></g><g transform="translate(205 372)"><path d="M18.4 -20.9C23.5 -17.7 27.1 -11.5 27.7 -5.3C28.2 0.9 25.7 7.1 22.2 12.4C18.7 17.7 14.1 22.1 8.6 24.6C3 27.1 -3.7 27.7 -9.5 25.8C-15.4 23.8 -20.4 19.3 -23.9 13.6C-27.3 8 -29.2 1.3 -28.1 -5C-27.1 -11.3 -23.2 -17.1 -18 -20.4C-12.8 -23.7 -6.4 -24.4 0.1 -24.5C6.6 -24.6 13.3 -24.2 18.4 -20.9Z" stroke="#F7760E" fill="none" stroke-width="5"></path></g><g transform="translate(417 96)"><path d="M15.2 -17C20.2 -13.9 25.1 -9.6 26.8 -4.1C28.4 1.3 26.8 8 23.5 13.3C20.1 18.6 14.9 22.7 9.1 24.8C3.2 26.9 -3.3 27 -8.5 24.6C-13.7 22.2 -17.4 17.2 -19.7 12C-21.9 6.8 -22.6 1.4 -21.9 -4.1C-21.2 -9.6 -19.3 -15.1 -15.4 -18.4C-11.5 -21.7 -5.8 -22.7 -0.3 -22.3C5.1 -21.9 10.2 -20.1 15.2 -17Z" stroke="#F7760E" fill="none" stroke-width="5"></path></g><g transform="translate(217 260)"><path d="M13.3 -15.9C17.4 -12.5 20.8 -8.4 21.5 -3.9C22.2 0.7 20.2 5.6 17.5 10C14.9 14.4 11.5 18.4 7.2 20C2.9 21.7 -2.3 21.1 -6.8 19.2C-11.4 17.3 -15.3 14.2 -18 10.1C-20.7 6 -22.2 0.9 -21.3 -3.6C-20.3 -8.2 -16.9 -12.2 -13 -15.6C-9 -19 -4.5 -21.8 0.1 -21.9C4.7 -22 9.3 -19.3 13.3 -15.9Z" stroke="#F7760E" fill="none" stroke-width="5"></path></g><g transform="translate(9 319)"><path d="M15.7 -17.8C20.4 -14.7 24.6 -9.9 26.1 -4.2C27.6 1.5 26.4 8 23 12.8C19.7 17.5 14.1 20.4 8.4 21.9C2.8 23.4 -2.9 23.4 -7.6 21.4C-12.3 19.4 -16 15.4 -19.2 10.7C-22.3 6 -24.9 0.6 -24.6 -4.9C-24.3 -10.4 -21.2 -16 -16.7 -19.2C-12.1 -22.4 -6 -23.2 -0.3 -22.9C5.4 -22.5 10.9 -21 15.7 -17.8Z" stroke="#F7760E" fill="none" stroke-width="5"></path></g><g transform="translate(615 95)"><path d="M15.3 -18.6C19.4 -14.8 22 -9.6 22.7 -4.2C23.4 1.2 22.3 6.7 19.9 12C17.5 17.3 13.7 22.3 8.7 24.4C3.6 26.5 -2.7 25.7 -8.6 23.6C-14.5 21.5 -20 18.1 -22.4 13.3C-24.7 8.5 -23.9 2.2 -22.4 -3.5C-20.9 -9.2 -18.7 -14.4 -14.8 -18.2C-11 -22 -5.5 -24.3 0.1 -24.4C5.6 -24.5 11.2 -22.3 15.3 -18.6Z" stroke="#F7760E" fill="none" stroke-width="5"></path></g><g transform="translate(137 90)"><path d="M15.7 -19.7C19.5 -15.6 21 -9.8 21.4 -4.3C21.8 1.2 21 6.5 18.6 10.9C16.2 15.3 12.2 19 7.2 21.7C2.1 24.4 -4 26.2 -8.8 24.4C-13.5 22.5 -16.9 17.1 -20 11.6C-23.1 6.1 -26 0.5 -25.7 -5.1C-25.4 -10.7 -22 -16.4 -17.1 -20.3C-12.3 -24.3 -6.2 -26.5 -0.1 -26.4C6 -26.3 11.9 -23.8 15.7 -19.7Z" stroke="#F7760E" fill="none" stroke-width="5"></path></g><g transform="translate(7 30)"><path d="M16.8 -19.8C21.5 -16 24.9 -10.5 26.2 -4.4C27.5 1.7 26.7 8.3 23.3 12.8C20 17.3 14 19.7 8.3 20.8C2.7 22 -2.6 22 -7.3 20.2C-12 18.5 -16 15 -19.3 10.5C-22.7 6 -25.4 0.5 -24.7 -4.5C-24.1 -9.6 -20 -14.3 -15.3 -18C-10.6 -21.8 -5.3 -24.7 0.4 -25.1C6 -25.6 12.1 -23.6 16.8 -19.8Z" stroke="#F7760E" fill="none" stroke-width="5"></path></g><g transform="translate(196 37)"><path d="M14.1 -16.1C18.1 -13.5 21.1 -8.8 21.7 -4.1C22.2 0.7 20.3 5.7 17.6 9.8C14.8 13.9 11.1 17.2 6.6 19.4C2.1 21.7 -3.3 22.8 -8.3 21.6C-13.3 20.3 -17.9 16.6 -20 12C-22.2 7.3 -22.1 1.7 -20.7 -3.2C-19.2 -8.1 -16.6 -12.3 -12.9 -15.1C-9.3 -17.9 -4.6 -19.1 0.2 -19.4C5 -19.6 10.1 -18.8 14.1 -16.1Z" stroke="#F7760E" fill="none" stroke-width="5"></path></g><g transform="translate(652 314)"><path d="M16.1 -19.5C20.3 -15.5 23 -10 24.2 -4.1C25.4 1.8 25.1 8.1 22.4 13C19.6 18 14.4 21.6 8.8 23.2C3.2 24.8 -2.8 24.4 -7.9 22.3C-13 20.2 -17.3 16.3 -19.4 11.6C-21.6 7 -21.8 1.6 -20.6 -3.3C-19.4 -8.3 -16.8 -12.7 -13.2 -16.7C-9.5 -20.7 -4.8 -24.4 0.6 -25C5.9 -25.7 11.8 -23.4 16.1 -19.5Z" stroke="#F7760E" fill="none" stroke-width="5"></path></g><g transform="translate(7 454)"><path d="M14.9 -18.2C18.5 -14.8 19.9 -9.3 20.1 -4.1C20.3 1 19.3 5.8 17.2 10.4C15.1 15 11.9 19.5 7.4 21.8C2.8 24.2 -3.1 24.4 -7.5 22.2C-12 19.9 -15.1 15.2 -17.4 10.4C-19.8 5.6 -21.4 0.8 -21.1 -4.2C-20.8 -9.2 -18.6 -14.3 -14.7 -17.7C-10.9 -21 -5.4 -22.5 0.1 -22.6C5.7 -22.8 11.4 -21.6 14.9 -18.2Z" stroke="#F7760E" fill="none" stroke-width="5"></path></g><g transform="translate(3 102)"><path d="M17.8 -21.2C22.2 -17.6 24.3 -11.1 25.3 -4.6C26.3 2 26.3 8.6 23.5 13.6C20.6 18.6 15 22.1 8.8 24.5C2.6 27 -4.2 28.5 -9.9 26.6C-15.5 24.7 -20.2 19.5 -22.7 13.8C-25.1 8 -25.4 1.7 -24.5 -4.4C-23.5 -10.6 -21.3 -16.7 -17 -20.3C-12.7 -23.9 -6.4 -25.1 0.2 -25.3C6.7 -25.5 13.4 -24.8 17.8 -21.2Z" stroke="#F7760E" fill="none" stroke-width="5"></path></g><g transform="translate(406 370)"><path d="M14.9 -18.3C19.4 -14.1 23 -9.4 24.2 -4C25.5 1.3 24.3 7.3 21.5 12.7C18.8 18 14.4 22.7 9.1 24.3C3.9 25.9 -2.2 24.4 -7.4 21.8C-12.6 19.3 -16.8 15.7 -19.2 11.2C-21.7 6.8 -22.3 1.4 -21.4 -3.8C-20.5 -8.9 -18 -13.7 -14.2 -18C-10.4 -22.3 -5.2 -26 0 -26.1C5.3 -26.1 10.5 -22.5 14.9 -18.3Z" stroke="#F7760E" fill="none" stroke-width="5"></path></g><g transform="translate(434 166)"><path d="M15.2 -18.1C19.9 -14.2 24 -9.6 25.5 -4C27.1 1.6 26.2 8.1 23 13C19.8 17.8 14.3 21.1 8.6 22.7C2.9 24.4 -3 24.4 -8.5 22.7C-14 21 -19 17.4 -21.5 12.6C-24 7.9 -24 1.8 -22.5 -3.5C-21 -8.9 -18.1 -13.5 -14.1 -17.5C-10.1 -21.5 -5.1 -24.9 0.1 -25C5.3 -25.1 10.5 -22 15.2 -18.1Z" stroke="#F7760E" fill="none" stroke-width="5"></path></g><g transform="translate(110 538)"><path d="M15.1 -18.3C19.4 -14.4 22.6 -9.5 23.8 -4C25 1.5 24.2 7.5 21.6 12.8C18.9 18 14.4 22.5 9 24.2C3.6 26 -2.6 25 -8.4 23C-14.3 20.9 -19.9 17.8 -23.6 12.9C-27.3 8 -29.1 1.3 -27.4 -4.2C-25.7 -9.8 -20.6 -14.1 -15.5 -17.8C-10.3 -21.5 -5.2 -24.7 0.1 -24.8C5.4 -25 10.8 -22.1 15.1 -18.3Z" stroke="#F7760E" fill="none" stroke-width="5"></path></g><g transform="translate(940 147)"><path d="M12.5 -15.5C16.3 -11.8 19.3 -7.9 20.4 -3.4C21.5 1.2 20.6 6.3 18.3 10.9C16 15.5 12.3 19.7 7.9 20.9C3.5 22.1 -1.6 20.3 -6.4 18.2C-11.2 16.2 -15.6 13.9 -18.6 10.1C-21.5 6.3 -23 1 -22.1 -3.8C-21.1 -8.7 -17.9 -13 -13.8 -16.6C-9.7 -20.2 -4.9 -23 -0.2 -22.7C4.4 -22.4 8.8 -19.1 12.5 -15.5Z" stroke="#F7760E" fill="none" stroke-width="5"></path></g><g transform="translate(874 263)"><path d="M12.1 -14.5C15.2 -11.8 17 -7.6 17.9 -3.1C18.7 1.3 18.6 6 16.6 9.8C14.7 13.6 10.9 16.5 6.6 17.9C2.4 19.4 -2.3 19.3 -6.3 17.6C-10.3 16 -13.6 12.9 -16 9.1C-18.4 5.3 -19.7 0.8 -18.9 -3.2C-18.1 -7.3 -15.1 -10.8 -11.6 -13.4C-8 -16 -4 -17.7 0.2 -17.9C4.5 -18.2 9 -17.1 12.1 -14.5Z" stroke="#F7760E" fill="none" stroke-width="5"></path></g><g transform="translate(829 86)"><path d="M13.4 -16.7C17.2 -12.7 20.1 -8.4 21.8 -3.2C23.5 2 23.9 8 21.6 13C19.3 17.9 14.3 21.9 9 23.2C3.6 24.6 -2.2 23.4 -7.7 21.3C-13.2 19.3 -18.4 16.5 -21.4 12C-24.4 7.6 -25.2 1.5 -24.1 -4.1C-22.9 -9.8 -20 -15 -15.6 -19C-11.3 -22.9 -5.7 -25.6 -0.5 -25C4.8 -24.5 9.5 -20.8 13.4 -16.7Z" stroke="#F7760E" fill="none" stroke-width="5"></path></g><g transform="translate(954 462)"><path d="M13.4 -16C17.2 -12.7 20.1 -8.4 21.8 -3.2C23.4 1.9 23.8 7.9 21.4 12.7C19.1 17.6 14.1 21.2 8.6 22.9C3.1 24.6 -2.8 24.3 -8 22.3C-13.2 20.3 -17.7 16.6 -20 11.9C-22.3 7.2 -22.3 1.6 -21 -3.4C-19.8 -8.4 -17.2 -12.9 -13.4 -16.2C-9.7 -19.5 -4.9 -21.5 0 -21.5C4.8 -21.4 9.5 -19.2 13.4 -16Z" stroke="#F7760E" fill="none" stroke-width="5"></path></g><g transform="translate(448 458)"><path d="M12.4 -14.9C15.9 -11.9 18.3 -7.8 18.9 -3.5C19.5 0.8 18.2 5.3 15.9 9.1C13.6 12.9 10.3 15.9 6.3 17.4C2.3 18.9 -2.2 18.7 -6.3 17.3C-10.5 15.9 -14.2 13.1 -16.1 9.4C-18.1 5.8 -18.3 1.3 -17.9 -3.5C-17.4 -8.3 -16.4 -13.3 -13.3 -16.3C-10.2 -19.4 -5.1 -20.4 -0.3 -20.1C4.5 -19.7 9 -17.9 12.4 -14.9Z" stroke="#F7760E" fill="none" stroke-width="5"></path></g><g transform="translate(268 70)"><path d="M15.5 -18.9C19.9 -14.9 23 -9.7 23.9 -4.3C24.7 1.2 23.4 7 20.5 11.7C17.6 16.4 13.1 20.1 8.1 21.8C3 23.5 -2.7 23.2 -7.9 21.5C-13.2 19.7 -18 16.4 -20.3 12C-22.6 7.5 -22.4 1.8 -21.3 -3.6C-20.1 -8.9 -18 -14 -14.3 -18.1C-10.6 -22.2 -5.3 -25.4 0.1 -25.6C5.6 -25.7 11.2 -22.9 15.5 -18.9Z" stroke="#F7760E" fill="none" stroke-width="5"></path></g><g transform="translate(562 9)"><path d="M15.8 -19C19.9 -15.5 22.2 -9.9 22.6 -4.4C23.1 1 21.7 6.4 19.2 11.4C16.6 16.3 13 21 8.3 22.5C3.7 24.1 -2 22.6 -7.6 20.6C-13.1 18.7 -18.5 16.3 -20.7 12.1C-22.9 8 -21.8 2.2 -20.4 -3.2C-19 -8.6 -17.2 -13.5 -13.8 -17.2C-10.3 -20.9 -5.2 -23.4 0.4 -23.8C5.9 -24.2 11.8 -22.6 15.8 -19Z" stroke="#F7760E" fill="none" stroke-width="5"></path></g><g transform="translate(739 412)"><path d="M16.4 -19.3C21 -15.7 24.2 -10.3 24.7 -4.8C25.1 0.7 22.8 6.3 19.5 10.5C16.2 14.8 11.9 17.8 7 19.8C2.2 21.8 -3.2 22.8 -7.6 21.1C-12 19.4 -15.4 15.2 -18.5 10.4C-21.5 5.7 -24.2 0.5 -23.3 -4.1C-22.5 -8.6 -18.1 -12.4 -13.6 -16C-9.1 -19.5 -4.6 -22.8 0.7 -23.6C5.9 -24.4 11.9 -22.8 16.4 -19.3Z" stroke="#F7760E" fill="none" stroke-width="5"></path></g><g transform="translate(815 537)"><path d="M16.3 -20.1C20.6 -15.9 23.1 -10.2 23.9 -4.4C24.8 1.5 24 7.4 21.4 12.7C18.8 18 14.4 22.7 9.1 24.4C3.8 26 -2.4 24.7 -7.7 22.3C-13 19.9 -17.5 16.3 -20.4 11.6C-23.4 6.9 -24.8 1.2 -24 -4.5C-23.3 -10.1 -20.4 -15.5 -16.1 -19.7C-11.7 -23.8 -5.9 -26.7 0.1 -26.8C6 -26.9 12.1 -24.3 16.3 -20.1Z" stroke="#F7760E" fill="none" stroke-width="5"></path></g></g></svg>