<svg xmlns="http://www.w3.org/2000/svg" width="1031" height="328" viewBox="0 0 1031 328" version="1.1"><path d="" stroke="none" fill="#080404" fill-rule="evenodd"/><path d="M 847.222 1.410 C 840.556 3.585, 836.396 7.380, 833.127 14.269 C 826.924 27.342, 826.552 42.106, 831.673 72 C 834.483 88.398, 834.499 88.749, 834.328 128.791 C 834.101 182.219, 832.031 206.948, 825.978 228.564 C 824.890 232.449, 824.003 236.724, 824.006 238.064 C 824.031 249.350, 833.231 257, 846.777 257 C 857.078 257, 861.162 253.433, 865.962 240.245 C 872.035 223.559, 872.543 218.799, 872.076 183 C 871.551 142.829, 871.571 35.300, 872.106 20.833 C 872.534 9.242, 871.828 7.200, 865.841 2.731 C 862.510 0.243, 852.888 -0.439, 847.222 1.410 M 40.880 2.973 C 26.023 5.674, 8.295 11.551, 4.968 14.878 C 1.645 18.201, -0.460 26.448, 0.456 32.554 C 1.430 39.052, 4.249 41.703, 12.250 43.647 C 18.660 45.205, 20.100 46.407, 18.123 48.550 C 16.646 50.151, 13.235 60.281, 12.060 66.556 C 10.556 74.584, 7.395 109.044, 5.941 133.267 C 4.415 158.665, 5.225 214.346, 7.397 233.457 L 8.984 247.415 13.704 252.207 L 18.425 257 25.534 257 C 34.880 257, 40.850 254.840, 47.147 249.178 C 57.555 239.821, 59.105 230.470, 54.561 204.460 C 52.324 191.650, 51.552 183.724, 51.876 176.880 C 51.987 174.542, 52.837 173.965, 59.750 171.535 C 77.818 165.182, 113.522 150.528, 126.500 144.138 C 134.200 140.346, 143.778 134.916, 147.785 132.072 C 165.247 119.673, 177.676 104.320, 183.329 88.166 C 185.934 80.719, 186.423 77.692, 186.802 66.649 L 187.243 53.799 180.871 47.310 C 158.872 24.903, 132.797 10.336, 103.199 3.917 C 88.761 0.785, 55.669 0.284, 40.880 2.973 M 533.500 1.617 C 524.051 2.989, 513.192 5.476, 503.478 8.492 C 488.249 13.221, 485 16.855, 485 29.161 C 485 35.753, 486.910 40.182, 490.448 41.795 C 491.613 42.325, 495.114 43.330, 498.229 44.027 L 503.891 45.294 501.977 49.045 C 497.020 58.761, 494.184 77.574, 490.827 123 C 488.879 149.364, 489.157 207.447, 491.334 228.874 L 493.099 246.248 497.800 251.721 L 502.500 257.193 511.500 256.785 C 517.567 256.510, 521.641 255.786, 524 254.564 C 530.434 251.231, 535.824 246.060, 538.409 240.739 C 542.496 232.324, 542.604 226.909, 539.101 205.905 C 537.396 195.677, 536.003 184.427, 536.006 180.905 L 536.012 174.500 545.256 171.150 C 563.091 164.688, 597.208 150.889, 608.363 145.628 C 624.920 137.818, 636.013 130.151, 647.500 118.576 C 657.811 108.186, 662.374 101.601, 666.726 90.827 C 670.031 82.645, 672.291 69.205, 671.807 60.615 L 671.419 53.731 660.460 43.096 C 639.558 22.814, 618.332 11.292, 589 4.304 C 579.875 2.130, 575.751 1.762, 557.500 1.492 C 545.950 1.321, 535.150 1.377, 533.500 1.617 M 406.791 21.931 C 401.943 23.495, 398.190 26.933, 396.604 31.263 C 394.716 36.418, 389.420 73.577, 388.002 91.616 C 386.398 112.027, 383.414 119.387, 375 123.675 C 372.525 124.936, 363.689 127.748, 355.364 129.923 C 336.994 134.723, 334.434 135.756, 330.153 140.102 C 326.220 144.094, 325 146.831, 325 151.661 C 325 156.333, 327.382 160.152, 332.273 163.324 C 341.666 169.415, 356.789 167.559, 371.029 158.567 C 374.038 156.668, 376.860 155.470, 377.299 155.906 C 380.159 158.742, 384.063 191.050, 386.493 232 C 389.562 283.714, 391.858 307.512, 394.500 315.001 C 397.222 322.715, 403.909 328, 410.948 328 C 415.855 328, 421.435 325.220, 423.552 321.721 C 426.905 316.178, 426.229 296.657, 419.998 219 C 417.695 190.296, 416.415 159.468, 417.368 155.670 L 418.038 153 434.431 153 C 453.365 153, 463.645 151.407, 471.183 147.304 C 483.087 140.825, 485.544 126.333, 475.543 121.588 C 469.947 118.932, 463.674 118.676, 446.373 120.396 C 437.502 121.278, 428.996 122, 427.470 122 L 424.694 122 425.326 107.750 C 426.318 85.393, 429.641 68.793, 437.071 49.071 C 443.132 32.984, 442.191 28.515, 431.787 23.966 C 426.030 21.449, 411.863 20.296, 406.791 21.931 M 61.500 37.664 C 59.850 37.864, 57.008 38.273, 55.186 38.571 L 51.871 39.115 55.480 43.110 C 57.465 45.307, 59.508 48.205, 60.019 49.550 C 61.135 52.485, 60.011 59.074, 56.499 70.191 C 55.125 74.543, 54 79.670, 54 81.586 C 54 83.501, 53.052 91.216, 51.892 98.730 C 49.569 113.790, 49.725 121.933, 52.393 124.881 C 56.125 129.006, 72.323 130.351, 83.540 127.468 C 108.088 121.160, 134.919 96.753, 140.951 75.242 L 141.865 71.985 127.682 62.566 C 112.458 52.456, 97.455 44.559, 87 41.152 C 81.179 39.256, 68.096 36.832, 65.500 37.170 C 64.950 37.241, 63.150 37.464, 61.500 37.664 M 543.185 38.014 C 540.261 38.445, 537.590 39.076, 537.250 39.417 C 536.909 39.758, 538.401 41.851, 540.565 44.069 C 544.244 47.838, 544.495 48.472, 544.423 53.801 C 544.379 57.050, 543.189 63.095, 541.654 67.862 C 540.173 72.461, 538.528 80.404, 537.999 85.512 C 537.469 90.620, 536.320 99.233, 535.446 104.650 C 532.236 124.547, 535.680 128.981, 554.356 128.994 C 570.807 129.006, 585.973 122.480, 602.864 108.122 C 612.558 99.882, 623.156 84.311, 625.506 74.856 C 626.113 72.414, 625.439 71.707, 616.678 65.598 C 585.720 44.014, 562.244 35.203, 543.185 38.014 M 737 74.948 C 726.313 77.219, 714.223 81.872, 705.919 86.908 L 699.500 90.801 699.538 99.651 C 699.571 107.051, 699.985 109.305, 702.067 113.414 C 705 119.199, 708.794 122.343, 712.694 122.218 C 714.237 122.168, 723.150 119.219, 732.500 115.663 C 742.312 111.932, 752.569 108.729, 756.759 108.089 C 767.976 106.374, 777.906 108.304, 779.853 112.576 C 781.271 115.689, 781.351 125.697, 779.988 129.601 L 778.976 132.500 761.238 132.569 C 739.983 132.651, 730.776 134.503, 716.017 141.668 C 707.813 145.650, 705.247 147.570, 697.004 155.886 C 686.719 166.262, 683.191 172.017, 680.422 182.932 C 678.143 191.921, 678.788 208.744, 681.653 215 C 687.006 226.691, 698.142 236.947, 710.500 241.568 C 714.670 243.127, 726.730 245.742, 740.329 248.036 C 752.885 250.154, 763.830 252.444, 764.652 253.126 C 765.474 253.808, 766.987 256.014, 768.014 258.028 C 771.051 263.980, 776.352 268, 781.167 268 C 787.051 268, 791.166 263.365, 794.416 253.077 C 797.190 244.294, 798.362 236.267, 800.484 211.500 C 801.511 199.516, 803.445 187.271, 807.039 170 C 815.128 131.127, 814.987 114.237, 806.430 97.132 C 800.721 85.722, 790.865 78.093, 777.284 74.574 C 768.835 72.384, 748.156 72.576, 737 74.948 M 949.269 77.925 C 940.459 80.444, 931.260 85.194, 922.256 91.871 C 912.391 99.186, 906.523 105.802, 902.673 113.949 C 896.759 126.463, 899.155 137.201, 910.711 149.971 C 918.610 158.698, 927.151 163.818, 950 173.523 C 981.604 186.947, 986.855 190.015, 989.643 196.689 C 991.283 200.612, 990.085 207.509, 986.857 212.732 C 984.391 216.722, 977.499 221.613, 970.594 224.273 C 963.586 226.974, 950.382 227.156, 943.195 224.651 C 938.623 223.058, 937.385 222.021, 934.247 217.151 C 927.899 207.304, 926.309 206, 920.651 206 C 910.826 206, 901 214.881, 901 223.760 C 901 233.050, 911.979 247.512, 923.825 253.826 C 931.908 258.134, 940.609 259.969, 953 259.978 C 988.128 260.004, 1020.103 238.738, 1027.472 210.448 C 1029.310 203.389, 1029.449 193.251, 1027.784 187.616 C 1024.460 176.367, 996.452 157.870, 964.606 145.892 C 954.668 142.154, 947.687 136.735, 943.411 129.438 C 938.153 120.466, 941.700 114.450, 953.722 111.954 C 961.243 110.393, 969.568 112.407, 981.500 118.675 C 1007.566 132.368, 1009.884 133.385, 1015.024 133.385 C 1022.795 133.385, 1028.481 128.163, 1030.090 119.546 C 1031.123 114.021, 1029.826 110.155, 1024.874 103.992 C 1019.413 97.197, 1009.753 91.561, 989.801 83.528 C 971.917 76.328, 970.761 76.003, 963.301 76.071 C 959.010 76.110, 952.696 76.945, 949.269 77.925 M 238.161 81.972 C 228.659 84.539, 221.037 88.963, 214.013 95.987 C 199.402 110.598, 193.990 128.171, 195.998 154.480 C 197.900 179.395, 201.491 194.262, 209.638 210.954 C 214.649 221.220, 216.176 223.351, 224.364 231.501 C 238.384 245.455, 251.215 251.019, 269.299 250.984 C 279.564 250.965, 304.046 247.549, 307.735 245.622 C 319.633 239.408, 323.484 222.169, 315.075 212.758 L 312.248 209.594 303.374 213.698 C 283.421 222.924, 272.226 224.355, 261.461 219.055 C 254.156 215.459, 250 211.090, 250 207.007 C 250 204.596, 251.172 203.348, 257.750 198.757 C 262.012 195.781, 273.825 188.242, 284 182.002 C 304.067 169.697, 308.245 166.791, 314.811 160.579 C 322.285 153.507, 323.375 150.966, 322.645 142.324 C 321.350 127.006, 314.959 114.041, 302.500 101.457 C 288.592 87.408, 274.412 80.971, 256 80.345 C 247.813 80.067, 243.883 80.425, 238.161 81.972 M 250.500 114.911 C 239.030 116.804, 232.297 125.030, 231.287 138.385 C 230.538 148.291, 231.657 156.201, 234.374 160.200 C 236.557 163.413, 236.799 163.499, 243.567 163.447 C 254.958 163.361, 266.030 159.425, 273.616 152.764 C 277.485 149.367, 284 137.182, 284 133.343 C 284 124.745, 275.452 117.479, 262.526 115.089 C 259.285 114.490, 256.153 114.056, 255.566 114.125 C 254.980 114.194, 252.700 114.547, 250.500 114.911 M 748.472 167.443 C 722.427 173.022, 716.703 175.935, 711.578 186.220 C 709.729 189.930, 709 192.978, 709 197 C 709 202.014, 709.344 202.941, 712.250 205.755 C 719.174 212.460, 738.915 218.896, 753.775 219.293 C 766.793 219.642, 765.937 220.511, 771.024 201.781 C 775.828 184.094, 776.553 176.125, 774.120 167.750 C 773.019 163.961, 772.311 163.015, 770.620 163.076 C 769.454 163.118, 759.487 165.083, 748.472 167.443 M 741.313 182.102 C 734.309 184.129, 732.048 191.754, 736.239 199.212 C 739.616 205.221, 746.010 207.670, 751.145 204.922 C 753.472 203.677, 758.998 192.605, 758.999 189.184 C 759.002 182.431, 751.105 179.269, 741.313 182.102" stroke="none" fill="#040404" fill-rule="evenodd"/></svg>