<svg xmlns="http://www.w3.org/2000/svg" width="541" height="188" viewBox="0 0 541 188" version="1.1"><path d="" stroke="none" fill="#080404" fill-rule="evenodd"/><path d="M 28.686 0.996 C 22.177 2.997, 21.127 5.218, 15.607 28.658 C 9.449 54.808, 5.341 76.268, 2.996 94.533 C -1.005 125.688, 1.069 158.569, 8.214 177.297 C 11.318 185.432, 26.483 184.490, 30.024 175.943 C 31.111 173.317, 30.925 171.446, 28.660 162.202 C 27.217 156.316, 25.742 147.184, 25.382 141.909 L 24.727 132.317 32.614 131.677 C 58.723 129.558, 85.479 110.749, 102.731 82.384 C 114.933 62.322, 120.689 35.710, 115.358 24 C 107.190 6.057, 80.590 1.378, 60.169 14.293 C 57.237 16.147, 51.499 20.971, 47.419 25.014 C 43.339 29.056, 40 31.848, 40 31.218 C 40 30.589, 40.984 26.189, 42.186 21.440 C 44.180 13.567, 44.246 12.450, 42.936 8.744 C 40.685 2.374, 34.733 -0.862, 28.686 0.996 M 260.073 0.741 C 253.556 1.934, 251.103 5.862, 247.849 20.319 C 245.823 29.317, 245.465 30.090, 243.569 29.556 C 242.431 29.235, 239.700 28.708, 237.500 28.385 L 233.500 27.797 233.500 19.467 C 233.500 11.614, 233.332 10.961, 230.563 8.068 C 228.084 5.478, 226.878 5, 222.829 5 C 215.448 5, 212.419 8.260, 209.441 19.410 C 208.142 24.274, 206.334 29.078, 205.424 30.084 C 204.513 31.091, 200.782 32.896, 197.134 34.095 C 181.664 39.181, 166.350 45.280, 164.345 47.155 C 161.104 50.186, 160.544 55.182, 162.860 60.417 C 166.458 68.551, 170.451 68.967, 187.296 62.963 C 193.784 60.651, 199.262 58.929, 199.469 59.136 C 199.676 59.343, 198.793 65.810, 197.507 73.506 C 193.547 97.212, 191.806 116.398, 191.748 137 C 191.670 164.670, 194.042 176.807, 200.947 184.065 C 204.272 187.561, 205.217 188, 209.411 188 C 215.165 188, 217.515 186.839, 219.490 183.020 C 221.625 178.890, 221.365 172.322, 218.750 164.355 C 216.682 158.054, 216.506 155.723, 216.568 135.500 C 216.642 111.898, 217.313 104.707, 222.119 76.034 C 226.264 51.301, 225.638 52.599, 233.106 53.276 C 236.435 53.578, 239.339 54.006, 239.560 54.227 C 239.782 54.448, 239.097 59.100, 238.039 64.565 C 234.173 84.536, 231.911 102.875, 231.323 119 C 230.637 137.828, 231.818 151.046, 235.635 167.231 C 237.779 176.323, 238.622 178.346, 241.159 180.481 C 247.371 185.708, 258.498 182.448, 260.395 174.846 C 261.071 172.133, 260.771 169.341, 259.162 163.376 C 257.297 156.463, 255.068 140.800, 255.017 134.250 C 255.002 132.195, 255.464 132, 260.340 132 C 267.552 132, 279.678 128.775, 288.596 124.486 C 320.492 109.145, 347.261 69.122, 347.446 36.500 C 347.491 28.527, 347.178 26.895, 344.706 22.199 C 338.113 9.678, 320.978 3.990, 303.535 8.533 C 294.632 10.852, 288.493 14.657, 278.803 23.864 C 273.961 28.464, 270 31.837, 270 31.360 C 270 30.884, 270.900 27.346, 272 23.500 C 275.213 12.265, 274.408 6.745, 269 2.929 C 265.984 0.800, 263.318 0.147, 260.073 0.741 M 449.873 6.684 C 448.428 7.580, 446.496 9.584, 445.579 11.135 C 442.617 16.150, 429.128 80.828, 426.420 103 C 424.179 121.358, 424.904 154.556, 427.819 167 C 431.747 183.773, 434.733 188, 442.650 188 C 446.235 188, 447.701 187.384, 450.735 184.604 C 455.289 180.431, 455.496 177.230, 452.167 162.500 C 450.562 155.402, 449.735 147.709, 449.314 135.991 C 448.360 109.381, 450.567 93.423, 462.057 43.873 C 465.326 29.778, 467.984 17.178, 467.965 15.873 C 467.842 7.695, 457.064 2.221, 449.873 6.684 M 78.994 32.529 C 73.171 34.324, 62.673 43.014, 56.528 51.124 C 48.902 61.190, 38.980 83.270, 33.987 101.288 L 32.099 108.103 34.299 107.431 C 54.947 101.120, 74.754 84.160, 84.997 64.019 C 88.557 57.021, 92.007 46.070, 92.692 39.602 C 93.224 34.574, 93.043 33.505, 91.467 32.352 C 89.160 30.665, 84.839 30.727, 78.994 32.529 M 310.071 32.165 C 308.186 32.707, 304.804 34.415, 302.557 35.961 C 296.702 39.989, 285.072 52.657, 281.145 59.282 C 274.392 70.677, 260.736 108.015, 263.331 107.988 C 265.817 107.962, 279.809 101.213, 286 97.053 C 295.102 90.938, 306.648 78.761, 312.208 69.415 C 316.934 61.470, 322.240 47.174, 323.399 39.260 C 324.465 31.989, 319.636 29.418, 310.071 32.165 M 401.382 76.556 C 399.537 78.512, 397.656 81.550, 397.200 83.306 C 396.745 85.063, 395.951 86.311, 395.436 86.080 C 394.921 85.850, 391.575 84.284, 388 82.602 C 379.899 78.789, 370.049 77.972, 361.646 80.415 C 343.326 85.740, 324.415 112.380, 319.918 139.198 C 317.748 152.139, 321.467 165.127, 329.992 174.375 C 335.593 180.451, 341.093 183.003, 348.566 182.990 C 359.654 182.972, 370.139 175.681, 382.746 159.222 C 388.700 151.449, 389.754 151.311, 389.930 158.282 C 390.038 162.579, 393.888 173.127, 396.701 176.835 C 399.564 180.609, 404.593 183.991, 407.349 183.996 C 410.590 184.003, 415.532 181.063, 417.294 178.080 C 419.648 174.094, 419.439 170.571, 416.333 161.925 C 412.341 150.813, 412.615 137.016, 417.374 109.622 C 422.013 82.911, 422.027 80.827, 417.600 76.400 C 414.691 73.491, 413.516 73, 409.468 73 C 405.341 73, 404.307 73.455, 401.382 76.556 M 129.842 76.375 C 115.891 82.113, 106.881 90.588, 100.080 104.369 C 95.065 114.531, 93.030 123.087, 93.030 134 C 93.030 144.640, 94.968 153.002, 99.541 162.082 C 113.493 189.786, 141.711 190.071, 167.603 162.769 C 175.160 154.801, 181.693 145.559, 183.007 140.976 C 185.712 131.543, 174.812 122.858, 166.341 127.696 C 164.604 128.688, 159.769 133.847, 155.596 139.161 C 143.882 154.078, 134.322 160.617, 127.848 158.139 C 125.444 157.219, 119.177 150.349, 120.111 149.657 C 120.325 149.498, 124.080 147.834, 128.455 145.960 C 144.289 139.175, 161.773 126.582, 167.168 118.075 C 171.237 111.659, 172.123 107.690, 170.844 101.607 C 168.462 90.275, 160.987 79.793, 152.500 75.886 C 146.712 73.220, 137.001 73.430, 129.842 76.375 M 495.353 77.061 C 487.470 79.560, 480.123 86.013, 476.300 93.797 C 473.893 98.700, 473.503 100.693, 473.518 108 C 473.534 115.450, 473.930 117.335, 476.720 123.259 C 480.666 131.636, 488.389 139.947, 496.981 145.062 C 504.960 149.812, 507.413 151.813, 508.963 154.833 C 509.963 156.783, 509.859 157.504, 508.330 159.221 C 506.252 161.554, 501.021 164, 498.109 164 C 494.800 164, 490.128 159.217, 489.003 154.677 C 486.606 144.999, 482.668 141, 475.535 141 C 472.871 141, 471.027 141.865, 468.235 144.423 C 464.621 147.736, 464.500 148.067, 464.500 154.673 C 464.500 162.928, 467.913 170.550, 474.980 178.077 C 481.751 185.289, 487.384 187.498, 499 187.499 C 507.518 187.500, 509.096 187.198, 514.268 184.577 C 520.974 181.179, 529.244 172.882, 532.020 166.766 C 534.564 161.161, 534.590 151.896, 532.078 146.363 C 529.496 140.678, 523.976 134.817, 514.507 127.710 C 496.447 114.153, 493.655 109.145, 500.400 102.400 C 503.127 99.673, 504.587 99, 507.778 99 C 512.714 99, 513.777 100.248, 515.137 107.638 C 515.731 110.862, 516.419 114.584, 516.667 115.909 C 516.915 117.234, 518.679 119.879, 520.586 121.786 C 523.765 124.965, 524.433 125.211, 528.603 124.741 C 544.114 122.993, 544.428 100.120, 529.166 83.721 C 526.600 80.963, 522.700 77.883, 520.500 76.875 C 515.082 74.394, 503.495 74.480, 495.353 77.061 M 137.248 99.649 C 131.620 102.423, 125.473 108.635, 122.108 114.949 C 117.122 124.304, 118.045 124.996, 127.738 119.163 C 144.063 109.340, 148.739 103.789, 144.171 99.655 C 141.931 97.628, 141.349 97.627, 137.248 99.649 M 365.784 104.554 C 362.267 106.463, 353.911 116.813, 350.072 124.017 C 343.190 136.929, 341.815 155.457, 347.576 157.667 C 350.662 158.852, 355.850 155.137, 361.363 147.793 C 367.136 140.102, 376.828 124.246, 381.919 114.161 L 384.951 108.154 379.779 105.577 C 373.973 102.684, 369.793 102.378, 365.784 104.554" stroke="none" fill="#040404" fill-rule="evenodd"/></svg>